<?xml version="1.0" encoding="UTF-8"?>
<svg xmlns="http://www.w3.org/2000/svg" viewBox="0 0 512 512" role="img" aria-label="KBMixer icon">
  <defs>
    <linearGradient id="bg" x1="0%" y1="0%" x2="100%" y2="100%">
      <stop offset="0%" stop-color="#0d9488"/>
      <stop offset="100%" stop-color="#0f766e"/>
    </linearGradient>
    <linearGradient id="chassis" x1="0%" y1="0%" x2="0%" y2="100%">
      <stop offset="0%" stop-color="#3d4f5f"/>
      <stop offset="100%" stop-color="#2a3542"/>
    </linearGradient>
  </defs>

  <rect width="512" height="512" rx="112" fill="url(#bg)"/>

  <!-- Mixer console (single slab — no screen bezel, no stand) -->
  <g>
    <rect x="72" y="56" width="368" height="248" rx="28" fill="url(#chassis)"/>
    <rect x="72" y="56" width="368" height="248" rx="28" fill="none" stroke="#5a6d7e" stroke-width="2" opacity="0.45"/>
    <!-- Recessed face -->
    <rect x="88" y="72" width="336" height="216" rx="18" fill="#0f172a"/>

    <!-- Four chunky faders (filled tracks rasterize cleaner than hairline strokes at 16–32px) -->
    <g fill="#334155">
      <rect x="134" y="96" width="16" height="168" rx="8"/>
      <rect x="206" y="96" width="16" height="168" rx="8"/>
      <rect x="278" y="96" width="16" height="168" rx="8"/>
      <rect x="350" y="96" width="16" height="168" rx="8"/>
    </g>
    <g fill="#ccfbf1">
      <rect x="118" y="124" width="48" height="18" rx="5"/>
      <rect x="190" y="164" width="48" height="18" rx="5"/>
      <rect x="262" y="140" width="48" height="18" rx="5"/>
      <rect x="334" y="184" width="48" height="18" rx="5"/>
    </g>
  </g>

  <!-- Keyboard + mouse (unchanged layout; sits under mixer) -->
  <g>
    <rect x="72" y="332" width="286" height="86" rx="16" fill="url(#chassis)"/>
    <rect x="72" y="332" width="286" height="86" rx="16" fill="none" stroke="#5a6d7e" stroke-width="2" opacity="0.45"/>
    <g fill="#99f6e4" opacity="0.95">
      <rect x="90" y="346" width="26" height="16" rx="3"/>
      <rect x="122" y="346" width="26" height="16" rx="3"/>
      <rect x="154" y="346" width="26" height="16" rx="3"/>
      <rect x="186" y="346" width="26" height="16" rx="3"/>
      <rect x="218" y="346" width="26" height="16" rx="3"/>
      <rect x="250" y="346" width="26" height="16" rx="3"/>
      <rect x="282" y="346" width="26" height="16" rx="3"/>
      <rect x="314" y="346" width="26" height="16" rx="3"/>
    </g>
    <g fill="#ccfbf1" opacity="0.95">
      <rect x="90" y="370" width="26" height="16" rx="3"/>
      <rect x="122" y="370" width="26" height="16" rx="3"/>
      <rect x="154" y="370" width="122" height="16" rx="3"/>
      <rect x="282" y="370" width="26" height="16" rx="3"/>
      <rect x="314" y="370" width="26" height="16" rx="3"/>
    </g>
  </g>

  <g>
    <rect x="370" y="332" width="68" height="86" rx="34" fill="url(#chassis)"/>
    <rect x="370" y="332" width="68" height="86" rx="34" fill="none" stroke="#5a6d7e" stroke-width="2" opacity="0.45"/>
    <rect x="398" y="352" width="12" height="40" rx="6" fill="#99f6e4" opacity="0.9"/>
  </g>
</svg>
