<?xml version="1.0" encoding="UTF-8"?>
<svg xmlns="http://www.w3.org/2000/svg" viewBox="0 0 512 512" role="img" aria-label="KBMixer icon">
  <defs>
    <linearGradient id="bg" x1="0%" y1="0%" x2="100%" y2="100%">
      <stop offset="0%" stop-color="#0d9488"/>
      <stop offset="100%" stop-color="#0f766e"/>
    </linearGradient>
    <linearGradient id="chassis" x1="0%" y1="0%" x2="0%" y2="100%">
      <stop offset="0%" stop-color="#3d4f5f"/>
      <stop offset="100%" stop-color="#2a3542"/>
    </linearGradient>
  </defs>

  <rect width="512" height="512" rx="112" fill="url(#bg)"/>

  <!-- Nudged up 10px so the stack sits a touch more visually centered in the tile -->
  <g transform="translate(0 -10)">
  <!-- Wider/taller layout: ~44px side inset, stack pushed down for even vertical balance -->
  <g>
    <rect x="44" y="76" width="424" height="284" rx="32" fill="url(#chassis)"/>
    <rect x="44" y="76" width="424" height="284" rx="32" fill="none" stroke="#5a6d7e" stroke-width="2" opacity="0.45"/>
    <rect x="60" y="92" width="392" height="252" rx="22" fill="#0f172a"/>

    <g fill="#334155">
      <rect x="100" y="112" width="18" height="208" rx="9"/>
      <rect x="198" y="112" width="18" height="208" rx="9"/>
      <rect x="296" y="112" width="18" height="208" rx="9"/>
      <rect x="394" y="112" width="18" height="208" rx="9"/>
    </g>
    <g fill="#ccfbf1">
      <rect x="82" y="142" width="54" height="20" rx="6"/>
      <rect x="180" y="188" width="54" height="20" rx="6"/>
      <rect x="278" y="158" width="54" height="20" rx="6"/>
      <rect x="376" y="210" width="54" height="20" rx="6"/>
    </g>
  </g>

  <g>
    <rect x="44" y="376" width="336" height="100" rx="18" fill="url(#chassis)"/>
    <rect x="44" y="376" width="336" height="100" rx="18" fill="none" stroke="#5a6d7e" stroke-width="2" opacity="0.45"/>
    <!-- Keys span inner width 310 (12px bezel); top: 8×35 + mixed 4/5 gaps -->
    <g fill="#99f6e4" opacity="0.95">
      <rect x="56" y="392" width="35" height="18" rx="5"/>
      <rect x="95" y="392" width="35" height="18" rx="5"/>
      <rect x="134" y="392" width="35" height="18" rx="5"/>
      <rect x="173" y="392" width="35" height="18" rx="5"/>
      <rect x="213" y="392" width="35" height="18" rx="5"/>
      <rect x="252" y="392" width="35" height="18" rx="5"/>
      <rect x="292" y="392" width="35" height="18" rx="5"/>
      <rect x="331" y="392" width="35" height="18" rx="5"/>
    </g>
    <!-- Bottom: 2 keys + 150px space + 2 keys, 5px gutters -->
    <g fill="#ccfbf1" opacity="0.95">
      <rect x="56" y="420" width="35" height="18" rx="5"/>
      <rect x="96" y="420" width="35" height="18" rx="5"/>
      <rect x="136" y="420" width="150" height="18" rx="5"/>
      <rect x="291" y="420" width="35" height="18" rx="5"/>
      <rect x="331" y="420" width="35" height="18" rx="5"/>
    </g>
  </g>

  <g>
    <rect x="392" y="376" width="76" height="100" rx="38" fill="url(#chassis)"/>
    <rect x="392" y="376" width="76" height="100" rx="38" fill="none" stroke="#5a6d7e" stroke-width="2" opacity="0.45"/>
    <rect x="422" y="400" width="16" height="44" rx="8" fill="#99f6e4" opacity="0.9"/>
  </g>
  </g>
</svg>
